<svg version="1.1" width="228" height="175" viewBox="-1 -1 228 175" xmlns="http://www.w3.org/2000/svg" xmlns:xlink="http://www.w3.org/1999/xlink">
  <!-- Exported by Scratch - http://scratch.mit.edu/ -->
  <path id="ID0.6547305365093052" fill="#FFFFFF" d="M 148.586 56.533 C 137.050 56.533 126.596 60.879 119.027 67.896 C 118.033 68.818 117.093 69.789 116.203 70.799 L 116.184 70.779 L 41.129 146.152 L 41.662 146.684 C 37.723 151.739 35.369 158.086 35.369 164.986 C 35.369 173.219 38.710 180.673 44.111 186.074 C 44.407 186.370 44.712 186.656 45.020 186.939 L 44.701 187.258 L 73.633 216.313 L 74.355 215.594 L 74.512 215.752 L 73.848 216.596 L 81.963 222.986 L 82.090 222.824 C 87.361 227.514 94.295 230.365 101.898 230.365 C 110.131 230.365 117.585 227.026 122.986 221.625 C 124.135 220.477 125.177 219.226 126.127 217.904 L 103.645 195.518 L 121.221 177.834 L 124.455 174.586 L 124.471 174.602 L 149.801 149.541 L 163.672 163.471 L 163.731 163.412 L 177.953 177.572 L 192.850 192.406 L 192.168 193.092 L 170.582 214.768 C 171.968 217.335 173.717 219.678 175.764 221.725 C 181.165 227.126 188.619 230.467 196.852 230.467 C 205.085 230.467 212.538 227.126 217.939 221.725 C 218.436 221.229 218.907 220.709 219.365 220.178 L 219.467 220.277 L 251.621 187.986 L 251.234 187.598 C 251.803 187.108 252.359 186.604 252.889 186.074 C 258.290 180.673 261.631 173.219 261.631 164.986 C 261.631 156.820 258.340 149.424 253.016 144.033 L 253.537 143.514 L 178.676 68.336 L 178.635 68.377 C 178.469 68.218 178.311 68.053 178.143 67.896 C 170.574 60.879 160.122 56.533 148.586 56.533 Z " transform="matrix(1, 0, 0, 1, -35, -56)"/>
</svg>